# xmcd
#
# Track frame offsets: 
#        150
#        14579
#        27954
#        41196
#        54797
#        68286
#        81956
#        96898
#        108185
#        122826
#        135405
#        150791
#        163149
#        176361
#        190019
#        204960
#        217149
#        230379
#        243482
#        257396
#        269792
#        284192
#
# Disc length: 4057 seconds
#
# Revision: 1
# Processed by: cddbd v1.5.1PL2 Copyright (c) Steve Scherf et al.
# Submitted via: ExactAudioCopy v0.95b4
#
DISCID=2e0fd716
DTITLE=Homer translated by Fitzgerald - The Iliad read by Guidall
DYEAR=1994
DGENRE=Speech
TTITLE0=Book 22 c
TTITLE1=Book 22 d
TTITLE2=Book 22 e
TTITLE3=Book 22 f
TTITLE4=Book 22 g
TTITLE5=Book 22 h
TTITLE6=Book 22 i
TTITLE7=Book 22 j
TTITLE8=Book 22 k
TTITLE9=Book 23 a
TTITLE10=Book 23 b
TTITLE11=Book 23 c
TTITLE12=Book 23 d
TTITLE13=Book 23 e
TTITLE14=Book 23 f
TTITLE15=Book 23 g
TTITLE16=Book 23 h
TTITLE17=Book 23 i
TTITLE18=Book 23 j
TTITLE19=Book 23 k
TTITLE20=Book 23 l
TTITLE21=Book 23 m
EXTD=
EXTT0=
EXTT1=
EXTT2=
EXTT3=
EXTT4=
EXTT5=
EXTT6=
EXTT7=
EXTT8=
EXTT9=
EXTT10=
EXTT11=
EXTT12=
EXTT13=
EXTT14=
EXTT15=
EXTT16=
EXTT17=
EXTT18=
EXTT19=
EXTT20=
EXTT21=
PLAYORDER=
